<svg width="119" height="119" viewBox="0 0 119 119" fill="none" xmlns="http://www.w3.org/2000/svg">
<path d="M27.9149 19.0283C28.9345 19.0283 29.7611 18.2017 29.7611 17.1821C29.7611 16.1625 28.9345 15.3359 27.9149 15.3359C26.8953 15.3359 26.0687 16.1625 26.0687 17.1821C26.0687 18.2017 26.8953 19.0283 27.9149 19.0283Z" fill="white"/>
<path d="M20.5302 19.0283C21.5498 19.0283 22.3764 18.2017 22.3764 17.1821C22.3764 16.1625 21.5498 15.3359 20.5302 15.3359C19.5106 15.3359 18.6841 16.1625 18.6841 17.1821C18.6841 18.2017 19.5106 19.0283 20.5302 19.0283Z" fill="white"/>
<path d="M13.1455 19.0283C14.1652 19.0283 14.9917 18.2017 14.9917 17.1821C14.9917 16.1625 14.1652 15.3359 13.1455 15.3359C12.1259 15.3359 11.2994 16.1625 11.2994 17.1821C11.2994 18.2017 12.1259 19.0283 13.1455 19.0283Z" fill="white"/>
<path d="M112.839 26.4128H105.454C104.435 26.4128 103.608 25.5857 103.608 24.5666C103.608 23.5475 104.435 22.7205 105.454 22.7205H112.839C113.858 22.7205 114.685 23.5475 114.685 24.5666C114.685 25.5857 113.858 26.4128 112.839 26.4128Z" fill="white"/>
<path d="M50.0689 26.4128H5.76087C4.74179 26.4128 3.9147 25.5857 3.9147 24.5666C3.9147 23.5475 4.74179 22.7205 5.76087 22.7205H50.0689C51.088 22.7205 51.9151 23.5475 51.9151 24.5666C51.9151 25.5857 51.088 26.4128 50.0689 26.4128Z" fill="white"/>
<path d="M24.2225 103.952H9.45321C6.39964 103.952 3.9147 101.467 3.9147 98.4134V13.4897C3.9147 10.4361 6.39964 7.95117 9.45321 7.95117H50.0689C51.088 7.95117 51.9151 8.77825 51.9151 9.79734C51.9151 10.8164 51.088 11.6435 50.0689 11.6435H9.45321C8.43412 11.6435 7.60704 12.4743 7.60704 13.4897V98.4134C7.60704 99.4288 8.43412 100.26 9.45321 100.26H24.2225C25.2416 100.26 26.0687 101.087 26.0687 102.106C26.0687 103.125 25.2416 103.952 24.2225 103.952Z" fill="white"/>
<path d="M109.146 103.952H20.5302C19.5111 103.952 18.6841 103.125 18.6841 102.106C18.6841 101.087 19.5111 100.26 20.5302 100.26H109.146C110.165 100.26 110.992 99.4288 110.992 98.4134V13.4897C110.992 12.4743 110.165 11.6435 109.146 11.6435H105.454C104.435 11.6435 103.608 10.8164 103.608 9.79734C103.608 8.77825 104.435 7.95117 105.454 7.95117H109.146C112.2 7.95117 114.685 10.4361 114.685 13.4897V98.4134C114.685 101.467 112.2 103.952 109.146 103.952Z" fill="white"/>
<path d="M24.2225 59.6438H13.1455C12.1265 59.6438 11.2994 58.8167 11.2994 57.7976C11.2994 56.7785 12.1265 55.9514 13.1455 55.9514H24.2225C25.2416 55.9514 26.0687 56.7785 26.0687 57.7976C26.0687 58.8167 25.2416 59.6438 24.2225 59.6438Z" fill="white"/>
<path d="M46.3766 37.4897H13.1455C12.1265 37.4897 11.2994 36.6626 11.2994 35.6435C11.2994 34.6244 12.1265 33.7974 13.1455 33.7974H46.3766C47.3956 33.7974 48.2227 34.6244 48.2227 35.6435C48.2227 36.6626 47.3956 37.4897 46.3766 37.4897Z" fill="white"/>
<path d="M46.3766 44.8745H13.1455C12.1265 44.8745 11.2994 44.0474 11.2994 43.0283C11.2994 42.0092 12.1265 41.1821 13.1455 41.1821H46.3766C47.3956 41.1821 48.2227 42.0092 48.2227 43.0283C48.2227 44.0474 47.3956 44.8745 46.3766 44.8745Z" fill="white"/>
<path d="M46.3766 52.2592H13.1455C12.1265 52.2592 11.2994 51.4321 11.2994 50.4131C11.2994 49.394 12.1265 48.5669 13.1455 48.5669H46.3766C47.3956 48.5669 48.2227 49.394 48.2227 50.4131C48.2227 51.4321 47.3956 52.2592 46.3766 52.2592Z" fill="white"/>
<path d="M98.0692 85.4902C97.652 85.4902 97.2348 85.3498 96.9025 85.0729L77.7614 69.4137L58.6203 85.0692C58.0702 85.5234 57.3059 85.6083 56.6597 85.3092C56.0172 85.0065 55.6074 84.3566 55.6074 83.644V20.8743C55.6074 19.8552 56.4345 19.0281 57.4536 19.0281C58.4726 19.0281 59.2997 19.8552 59.2997 20.8743V79.7486L76.5946 65.5996C77.274 65.0457 78.2525 65.0457 78.9319 65.5996L96.2231 79.7486V9.79729C96.2231 8.7819 95.396 7.95112 94.3769 7.95112H61.1459C60.1268 7.95112 59.2997 8.7819 59.2997 9.79729V11.6398C59.2997 12.6589 58.4726 13.4859 57.4536 13.4859C56.4345 13.4859 55.6074 12.6589 55.6074 11.6398V9.79729C55.6074 6.74373 58.0923 4.25879 61.1459 4.25879H94.3769C97.4305 4.25879 99.9154 6.74373 99.9154 9.79729V83.644C99.9154 84.3566 99.5056 85.0065 98.8594 85.3129C98.6083 85.4311 98.3388 85.4902 98.0692 85.4902Z" fill="white"/>
</svg>
