<svg width="86" height="85" viewBox="0 0 86 85" fill="none" xmlns="http://www.w3.org/2000/svg">
<g clip-path="url(#clip0_32_21)">
<path d="M10.5843 57.8515C3.80374 64.3915 9.5308 71.1066 0.519612 81.0608C-3.54747 85.5554 17.2627 84.185 27.5729 74.2395C31.9463 70.0218 30.7128 63.8729 26.0222 59.3476C21.3316 54.8223 14.9569 53.6338 10.5843 57.8515ZM85.7322 1.13655C82.251 -2.21875 43.7221 28.0766 32.2518 39.1419C26.5597 44.6324 24.6587 47.5764 22.9137 49.7784C22.1549 50.7339 23.1573 51.0301 23.6088 51.256C25.8636 52.3821 27.4403 53.4317 29.4792 55.3981C31.519 57.3645 32.6075 58.8861 33.7747 61.06C34.0086 61.496 34.3158 62.4638 35.3048 61.7333C37.5892 60.05 40.6395 58.2163 46.3316 52.7249C57.8028 41.6595 89.2098 4.49273 85.7322 1.13655Z" fill="white"/>
</g>
<defs>
<clipPath id="clip0_32_21">
<rect width="86" height="84.3881" fill="white"/>
</clipPath>
</defs>
</svg>
