<svg width="119" height="119" viewBox="0 0 119 119" fill="none" xmlns="http://www.w3.org/2000/svg">
<path d="M83.9153 29.7611V22.3764C83.9153 18.2979 80.6091 14.9917 76.5307 14.9917H22.3764C18.298 14.9917 14.9917 18.2979 14.9917 22.3764V29.7611H83.9153ZM66.6835 34.6842H14.9917V81.4538C14.9917 85.5322 18.298 88.8384 22.3764 88.8384H64.2229V42.0688C64.2229 39.2981 65.1384 36.7412 66.6835 34.6842ZM76.5307 34.6842C72.4522 34.6842 69.146 37.9904 69.146 42.0688V96.2231C69.146 100.302 72.4522 103.608 76.5307 103.608H96.2231C100.302 103.608 103.608 100.302 103.608 96.2231V42.0688C103.608 37.9904 100.302 34.6842 96.2231 34.6842H76.5307ZM88.8384 29.7611H96.2231C103.021 29.7611 108.531 35.2714 108.531 42.0688V96.2231C108.531 103.02 103.021 108.531 96.2231 108.531H76.5307C69.7333 108.531 64.2229 103.02 64.2229 96.2231V93.7615H22.3764C15.579 93.7615 10.0686 88.2512 10.0686 81.4538V22.3764C10.0686 15.579 15.579 10.0686 22.3764 10.0686H76.5307C83.3281 10.0686 88.8384 15.579 88.8384 22.3764V29.7611ZM19.9149 19.9148H24.838V24.8379H19.9149V19.9148ZM29.7611 19.9148H34.6842V24.8379H29.7611V19.9148ZM39.6073 19.9148H44.5304V24.8379H39.6073V19.9148ZM81.4538 98.6846C80.0943 98.6846 78.9922 97.5826 78.9922 96.2231C78.9922 94.8636 80.0943 93.7615 81.4538 93.7615H91.3C92.6595 93.7615 93.7616 94.8636 93.7616 96.2231C93.7616 97.5826 92.6595 98.6846 91.3 98.6846H81.4538Z" fill="white"/>
</svg>
